PathFileType	4	(X/Y/Z)	Patient4_TMGait_0pt5_01_left_04.trc.trc
DataRate	CameraRate	NumFrames	NumMarkers	Units	OrigDataRate	OrigDataStartFrame	OrigNumFrames
73.684210526316	73.684210526316	4	33	mm	73.684210526316	106	       141
Frame#	Time	L.ASIS			Sacral			L.Shoulder			Chest			R.Shoulder			Neck			R.ASIS			R.Thigh.Superior			R.Thigh.Lateral			R.Thigh.Inferior			R.Patella			L.Thigh.Superior			L.Thigh.Lateral			L.Thigh.Inferior			L.Patella			L.Shank.Superior			L.Shank.Lateral			L.Shank.Inferior			R.Shank.Superior			R.Shank.Lateral			R.Shank.Inferior			R.Heel			R.Midfoot.Superior			R.Midfoot.Lateral			R.Toe			L.Heel			L.Midfoot.Lateral			L.Midfoot.Superior			L.Toe			L.Elbow			L.Wrist			R.Elbow			R.Wrist			
		X1	Y1	Z1	X2	Y2	Z2	X3	Y3	Z3	X4	Y4	Z4	X5	Y5	Z5	X6	Y6	Z6	X7	Y7	Z7	X8	Y8	Z8	X9	Y9	Z9	X10	Y10	Z10	X11	Y11	Z11	X12	Y12	Z12	X13	Y13	Z13	X14	Y14	Z14	X15	Y15	Z15	X16	Y16	Z16	X17	Y17	Z17	X18	Y18	Z18	X19	Y19	Z19	X20	Y20	Z20	X21	Y21	Z21	X22	Y22	Z22	X23	Y23	Z23	X24	Y24	Z24	X25	Y25	Z25	X26	Y26	Z26	X27	Y27	Z27	X28	Y28	Z28	X29	Y29	Z29	X30	Y30	Z30	X31	Y31	Z31	X32	Y32	Z32	X33	Y33	Z33	

106	6.645000000000	714.821762633670	968.797517197860	378.755186357992	512.129185344477	1004.641507460483	551.345225238631	665.130338796415	1441.492050456890	367.968893502636	779.742102495890	1370.277841910995	520.401267442096	706.096448259527	1438.716391142638	701.711969549556	676.132295385418	1499.089260729872	519.631790865604	748.716665418745	944.242796750648	650.905705142818	782.083781084776	740.510465228099	616.533470891934	700.473517437607	633.118576010757	677.699487620203	770.524881971857	579.525335384193	593.139796828302	766.515540705483	491.046883227798	596.678068228272	803.287951091927	785.567967546525	405.546883032758	755.753245642115	658.208525462952	331.655347125429	859.910502622955	597.149798634480	389.624697905453	878.191904198252	513.414932991759	383.276010293638	829.653108590688	439.948082997920	374.294611186251	706.602395055529	359.475767888386	326.267995427722	735.500332120009	231.125329401736	378.193952636793	737.552558304668	403.102489801145	603.392167496134	665.191484027629	299.759001375212	662.873713340012	703.918131869561	205.660253616066	597.629207049594	566.122661862915	42.900307133867	563.630466198604	736.667110011084	97.528043421699	604.492632828708	647.566540123791	36.231535621412	640.865991585937	856.051755430407	43.527324145319	634.885295897214	574.737339316615	109.632251562979	417.923677623605	640.154506976486	89.009426112259	333.934774948160	737.800765718375	127.622162863260	353.208029402474	844.351101352051	48.561644943868	317.586195152679	611.969708796431	1088.420644756974	255.330520192083	727.925626596886	853.800090492393	235.856323624119	745.484612995860	1101.621681471934	835.635794177476	969.845013510085	972.456764069231	835.074921112772	
107	6.658571428571	712.807365132590	969.304103243393	379.060071132566	511.058462007455	1005.639579870060	552.888844660731	664.357058281128	1441.686174994239	368.633437713588	779.830016930562	1370.204242237756	520.259857170532	707.827924336312	1439.041206919582	702.090299576351	676.553011805691	1499.325958564562	520.196324376041	747.981254450510	944.085837154442	651.047746271035	778.782831750239	739.799535327874	616.419874252123	696.350323955806	633.176154633271	678.261866123225	765.241915278335	578.850481585069	593.420474576027	760.273318775990	490.723030926028	597.111315886306	801.216342751858	786.453631325807	406.134019680755	754.044385737373	659.276609992088	331.635264004897	857.418765440917	598.149374384192	390.547130970438	877.321623857778	516.709958282820	383.885609905921	833.387360588886	442.565040368531	373.983637367548	716.990054333540	353.809848241942	324.617586639152	754.851037626285	227.405419362137	376.383631884199	731.300977093354	402.918353625258	603.720000323131	658.684307851132	299.701596981150	663.090928644561	697.289692960277	205.559487062441	597.782956414011	559.313780333173	42.864293691956	563.637891270525	729.813578889908	97.448241343186	604.479154635057	640.729371619492	36.223023122668	640.876147596554	849.209919473891	43.441173658003	634.956198433356	603.368861830060	93.830437451258	414.687682930381	670.746300099816	78.744324502033	330.985512135010	765.109382625649	124.478038968699	351.025234955799	877.580803872774	54.043285465479	315.746547463636	609.450734574177	1088.634529053569	256.869590392608	717.300075950379	850.460536261105	235.118479695262	752.185716638656	1103.113361553736	836.231277066070	982.446725075281	985.650988485827	832.126286281477	
108	6.672142857143	710.930400242423	969.587346760450	379.238400713720	510.065462699126	1006.467029165063	554.222679060474	663.720201335421	1441.776566822567	369.211969132700	779.935528424051	1369.978257310670	520.090544671608	709.430036812610	1439.142000778378	702.391697339633	676.971055698991	1499.412339246992	520.710094053334	747.266853552408	943.826128451037	651.095779296572	775.638390537648	739.051550808053	616.280551470522	692.384397669572	633.162534112718	678.739386592657	760.155336106541	578.146931600536	593.656972830571	754.258825443258	490.358737802748	597.497532447763	798.738845614848	786.638485986448	406.652606389407	751.806643732345	659.873616624886	331.357668425862	854.143102135810	598.430951559971	391.474529922068	875.594413848193	519.496071777558	384.500324145272	836.358307168389	445.050857360114	373.684708842114	727.401293177959	348.363542884326	322.823184340301	774.028159747068	224.637846420198	374.739966825501	725.213375816048	402.681111014385	603.987620372618	652.309408226960	299.624939447158	663.267346661829	690.727808931265	205.411548776365	597.901455377281	552.497515528334	42.835349300090	563.642062564557	722.943975121596	97.335293055220	604.422189773504	633.883916781826	36.208442426905	640.872647749650	842.365017509585	43.316780859598	635.024877913433	632.630194481626	79.772051441470	411.414321304226	701.865085713989	70.098964068555	328.296471927246	792.384309603146	122.678247795282	349.266706455115	910.219392452172	61.026135566230	314.960882239900	606.969636613834	1088.854945765766	258.098347806762	706.776398813173	847.526525061158	234.369193134149	758.789928776913	1104.349287762710	836.437346573114	994.256459820650	998.807499162472	828.659227317866	
109	6.685714285714	709.194615286219	969.649211914999	379.293066862167	509.181992859121	1007.105247808777	555.359337090832	663.211741508061	1441.765892877165	369.684543226212	780.047625640123	1369.616650046567	519.883956370308	710.874669507944	1439.042345598829	702.598655217477	677.381748254652	1499.360388411943	521.147716721375	746.590188064420	943.486436004733	651.052836360766	772.684902836418	738.279646160573	616.132436616075	688.593001682386	633.084871422917	679.126378230224	755.295757979319	577.421142756807	593.856067713785	748.499872604926	489.953780131024	597.834036468611	795.912174687260	786.188443884749	407.083993440426	749.149602000009	660.059166071819	330.813997508859	850.277221179254	598.110268869046	392.323508642427	873.183542295166	521.816031552183	385.068363497192	838.625493391978	447.445508189145	373.381767357023	737.705256742572	343.375321024522	320.955362538728	792.701205085755	223.001049085594	373.321351313987	719.310808890913	402.397331598377	604.197137255029	646.084168441088	299.538970526981	663.406381744179	684.243635728595	205.224808945641	597.987667477973	545.675871420900	42.820273475862	563.644182936649	716.065244268636	97.194714637197	604.328475002975	627.034877040952	36.189787770763	640.853030627925	835.524276933682	43.153786829207	635.091910858785	661.935113089070	67.893334011229	408.276252212523	732.903869445148	63.362571936607	326.016303091188	819.124909431476	122.368052199941	348.002197086158	941.665810632824	69.432234065881	315.274171458600	604.510084894358	1089.078576865587	259.016358386909	696.433292511301	844.997994176772	233.592834649403	765.298453265207	1105.350938634303	836.244003625459	1005.241753057840	1011.825092624345	824.718578974109	
